<?xml version="1.0" encoding="UTF-8"?>
<svg width="69px" height="23px" viewBox="0 0 69 23" version="1.1" xmlns="http://www.w3.org/2000/svg" xmlns:xlink="http://www.w3.org/1999/xlink">
    <!-- Generator: Sketch 57.1 (83088) - https://sketch.com -->
    <title>Apigee LOGO</title>
    <desc>Created with Sketch.</desc>
    <defs>
        <polygon id="path-1" points="0 0.109937356 29.9072812 0.109937356 29.9072812 22.9839661 0 22.9839661"></polygon>
    </defs>
    <g id="Symbols" stroke="none" stroke-width="1" fill="none" fill-rule="evenodd">
        <g id="Top-Navigation" transform="translate(-1070.000000, -41.000000)">
            <g id="Apigee-LOGO" transform="translate(1070.000000, 40.880357)">
                <g id="Group-3" transform="translate(0.000000, 0.119643)">
                    <mask id="mask-2" fill="white">
                        <use xlink:href="#path-1"></use>
                    </mask>
                    <g id="Clip-2"></g>
                    <path d="M26.2546473,7.08396034 C26.2546473,5.95048333 26.9723705,5.19492011 27.9773705,5.19492011 C28.9822366,5.19492011 29.6999598,5.95035115 29.6999598,7.08396034 L29.6999598,16.1203167 C29.6999598,17.2537937 28.9822366,18.0093569 27.9773705,18.0093569 C26.9723705,18.0093569 26.2546473,17.2539259 26.2546473,16.1203167 L26.2546473,7.08396034 Z M29.9072812,1.96765 C29.9072812,3.0223454 29.0458527,3.91974195 27.9772366,3.91974195 C26.956433,3.91974195 26.0473259,3.00661552 26.0473259,1.96751782 C26.047192,1.00706954 26.956433,0.109937356 27.9771027,0.109937356 C28.9980402,0.109937356 29.9072812,0.975741954 29.9072812,1.96765 L29.9072812,1.96765 Z M19.3480848,15.0340293 C21.134558,15.0340293 22.0277277,13.1921787 22.0277277,11.6180006 C22.0277277,10.0120983 21.1504955,8.15451782 19.3480848,8.15451782 C17.5137991,8.15451782 16.6523705,9.85466724 16.6523705,11.4918971 C16.6523705,13.1605868 17.4499152,15.0340293 19.3480848,15.0340293 L19.3480848,15.0340293 Z M13.207058,7.08396034 C13.207058,5.95048333 13.9247812,5.19492011 14.9296473,5.19492011 C15.8867009,5.19492011 16.4289777,5.71427069 16.6523705,6.61166724 C17.2904062,5.57256954 18.6302277,5.05308678 19.9222366,5.05308678 C23.622817,5.05308678 25.4571027,8.46911552 25.4571027,11.7595695 C25.4571027,14.9552477 23.2558527,18.135196 19.7944687,18.135196 C18.7258527,18.135196 17.5454062,17.7416845 16.6522366,16.9545293 L16.6522366,21.0949259 C16.6522366,22.2284029 15.9343795,22.9839661 14.9295134,22.9839661 C13.9246473,22.9839661 13.2066562,22.2285351 13.2066562,21.0949259 L13.2066562,7.08396034 L13.207058,7.08396034 Z M6.15692411,15.0340293 C7.94339732,15.0340293 8.80482589,13.2393684 8.80482589,11.6180006 C8.80482589,9.99663276 7.97527232,8.15451782 6.15705804,8.15451782 C4.27469196,8.15451782 3.42946875,9.99636839 3.42946875,11.6180006 C3.42946875,13.2395006 4.29062946,15.0340293 6.15692411,15.0340293 L6.15692411,15.0340293 Z M12.233933,15.7895925 C12.233933,16.6555293 12.233933,18.0094891 10.5911652,18.0094891 C9.58629911,18.0094891 9.18745982,17.4741443 8.94826339,16.5767477 C8.07103125,17.6158454 6.98634375,18.1511902 5.67853125,18.1511902 C2.45634375,18.1511902 -4.01785714e-05,15.4432707 -4.01785714e-05,11.6177362 C-4.01785714e-05,7.9024431 2.53616518,5.0529546 5.67839732,5.0529546 C6.93839732,5.0529546 8.18272768,5.54110977 8.94826339,6.61153506 C9.04402232,5.79292011 9.76174554,5.19478793 10.5910312,5.19478793 C12.233933,5.19478793 12.233933,6.53288563 12.233933,7.4145523 L12.233933,15.7894603 L12.233933,15.7895925 Z" id="Fill-1" fill="#000000" mask="url(#mask-2)"></path>
                </g>
                <path d="M65.5933201,11.2942799 C65.4021739,9.89256531 64.4469775,8.8337981 62.8549836,8.8337981 C61.3267496,8.8337981 60.3079269,9.92236505 60.1488612,11.2942799 L65.5933201,11.2942799 Z M60.2123538,13.4416141 C60.4510861,15.0222524 61.8520675,15.752972 63.4440614,15.752972 C65.2111613,15.752972 66.4211302,14.4556817 67.3283395,14.4556817 C68.0607102,14.4556817 68.7293209,15.1415765 68.7293209,15.8423712 C68.7293209,17.229186 65.6887595,18.5713011 63.1256626,18.5713011 C59.273064,18.5713011 56.6941942,15.9318957 56.6941942,12.3977468 C56.6941942,9.14682057 59.2253443,6.17936754 62.839077,6.17936754 C66.5485165,6.17936754 69,9.34064409 69,12.0248744 C69,12.9793425 68.5543486,13.456514 67.5035792,13.456514 L60.2123538,13.456514 L60.2123538,13.4416141 Z M52.7302496,11.2495803 C52.539237,9.8478657 51.583907,8.78909849 49.991913,8.78909849 C48.4636791,8.78909849 47.4449901,9.87766544 47.2698841,11.2495803 L52.7302496,11.2495803 Z M47.349417,13.3969145 C47.5881492,14.9775528 48.988997,15.7231723 50.5809909,15.7231723 C52.3480908,15.7231723 53.5581934,14.4257567 54.4654027,14.4257567 C55.1977734,14.4257567 55.8662504,15.1117768 55.8662504,15.8125715 C55.8662504,17.1993863 52.825689,18.5415014 50.2627258,18.5415014 C46.4099935,18.5415014 43.8311237,15.9020959 43.8311237,12.367947 C43.8311237,9.11689562 46.3624074,6.14956781 49.9760065,6.14956781 C53.6854459,6.14956781 56.1370632,9.31084435 56.1370632,11.9950746 C56.1370632,12.9495428 55.6914118,13.4268394 54.6406423,13.4268394 L47.349417,13.4268394 L47.349417,13.3969145 Z M37.1132033,9.07244643 C35.3301968,9.07244643 34.4386267,10.8171085 34.4386267,12.3082223 C34.4386267,14.0230846 35.3142902,15.588823 37.1130696,15.588823 C38.9437958,15.588823 39.8036864,13.978385 39.8036864,12.4275465 C39.8036864,10.8469082 38.9916492,9.07244643 37.1130696,9.07244643 L37.1132033,9.07244643 Z M43.2261393,17.3188356 C43.2261393,21.1810321 40.5357898,23.1196429 36.6354714,23.1196429 C35.2346237,23.1196429 31.2229594,22.4783224 31.2229594,20.7038606 C31.2229594,20.107365 31.9392898,19.302146 32.6079005,19.302146 C33.7063897,19.302146 34.9162249,20.3011885 36.8902439,20.3011885 C38.5617708,20.3011885 39.7875125,19.3916704 39.7875125,17.7662073 L39.7875125,17.0055627 L39.7397928,17.0055627 C39.0234624,17.9898306 37.8612132,18.5264763 36.2853932,18.5264763 C32.6875671,18.5264763 31,15.5591485 31,12.367947 C31,9.13204591 33.1968447,6.11964286 36.651378,6.11964286 C37.8136272,6.11964286 39.1508486,6.61171418 39.7876462,7.59598204 C39.994699,6.74606343 40.5516964,6.2539921 41.5070264,6.2539921 C42.5099425,6.2539921 43.2262729,6.96968668 43.2262729,8.04335376 L43.2262729,17.3188356 L43.2261393,17.3188356 Z" id="Fill-4" fill="#000000"></path>
            </g>
        </g>
    </g>
</svg>