<?xml version="1.0" encoding="UTF-8"?>
<svg width="1326px" height="238px" viewBox="0 0 1326 238" version="1.1" xmlns="http://www.w3.org/2000/svg" xmlns:xlink="http://www.w3.org/1999/xlink">
    <!-- Generator: Sketch 57.1 (83088) - https://sketch.com -->
    <title>google_cloud_no_icon</title>
    <desc>Created with Sketch.</desc>
    <g id="Page-1" stroke="none" stroke-width="1" fill="none" fill-rule="evenodd">
        <g id="google_cloud_no_icon" fill="#424242" fill-rule="nonzero">
            <path d="M0.3,92.5 C0.3,42 42.7,0.9 93.2,0.9 C121.1,0.9 141,11.9 156,26.2 L138.4,43.9 C127.7,33.9 113.1,26 93.2,26 C56.3,26 27.5,55.7 27.5,92.6 C27.5,129.5 56.3,159.2 93.2,159.2 C117.1,159.2 130.8,149.6 139.4,140.9 C146.6,133.7 151.3,123.4 153.1,109.4 L93.2,109.4 L93.2,84.4 L177.4,84.4 C178.3,88.9 178.8,94.2 178.8,100 C178.8,118.8 173.7,142 157.1,158.5 C141,175.3 120.5,184.2 93.2,184.2 C42.7,184.1 0.3,143 0.3,92.5" id="Path"></path>
            <path d="M246.9,66.2 C214.3,66.2 187.7,91 187.7,125.2 C187.7,159.2 214.3,184.2 246.9,184.2 C279.5,184.2 306.100281,159.2 306.100281,125.2 C306.2,91 279.6,66.2 246.9,66.2 M246.9,160.9 C229,160.9 213.6,146.1 213.6,125.1 C213.6,103.9 229,89.3 246.9,89.3 C264.8,89.3 280.2,103.8 280.2,125.1 C280.2,146.2 264.8,160.9 246.9,160.9" id="Shape"></path>
            <path d="M376.1,66.2 C343.5,66.2 316.9,91 316.9,125.2 C316.9,159.2 343.5,184.2 376.1,184.2 C408.7,184.2 435.4,159.2 435.4,125.2 C435.4,91 408.7,66.2 376.1,66.2 M376.1,160.9 C358.3,160.9 342.8,146.1 342.8,125.1 C342.8,103.9 358.2,89.3 376.1,89.3 C394,89.3 409.4,103.8 409.4,125.1 C409.4,146.2 394,160.9 376.1,160.9" id="Shape"></path>
            <path d="M534.7,69.7 L534.7,79.3 L533.8,79.3 C528,72.4 516.8,66.2 502.7,66.2 C473.2,66.2 446.2,92.1 446.2,125.4 C446.2,158.5 473.3,184.2 502.7,184.2 C516.8,184.2 528,178 533.8,170.8 L534.7,170.8 L534.7,179.3 C534.7,201.9 522.7,214 503.2,214 C487.4,214 477.5,202.6 473.5,192.9 L450.9,202.3 C457.4,217.9 474.6,237.1 503.2,237.1 C533.6,237.1 559.3,219.3 559.3,175.6 L559.3,69.7 L534.7,69.7 Z M505,160.9 C487.1,160.9 472.1,145.9 472.1,125.4 C472.1,104.6 487.1,89.4 505,89.4 C522.7,89.4 536.5,104.6 536.5,125.4 C536.5,146 522.7,160.9 505,160.9 L505,160.9 Z" id="Shape"></path>
            <rect id="Rectangle" x="577.2" y="7.2" width="25.9" height="173.4"></rect>
            <path d="M674.2,160.9 C661,160.9 651.6,154.9 645.6,143 L724.5,110.4 L721.8,103.7 C716.9,90.5 701.9,66.2 671.3,66.2 C640.9,66.2 615.6,90.1 615.6,125.2 C615.6,158.3 640.7,184.2 674.2,184.2 C701.2,184.2 716.9,167.7 723.4,158 L703.3,144.6 C696.5,154.4 687.3,160.9 674.2,160.9 M672.2,88.9 C682.5,88.9 691.2,94 694.1,101.4 L641.4,123.3 C640.7,100.5 659,88.9 672.2,88.9" id="Shape"></path>
            <path d="M775.3,100.5 C775.3,52.9 811.3,16.9 858.4,16.9 C882.5,16.9 902.9,26.5 917.2,43 L902.9,56.9 C891.7,43 876.8,36.6 858.4,36.6 C824.6,36.6 796.3,61.2 796.3,100.5 C796.3,139.9 824.7,164.4 858.4,164.4 C878.5,164.4 895.5,155 907.6,141.1 L921.9,155.4 C907.8,172.2 885.2,184.000208 858.4,184.000208 C811.3,184.1 775.3,148.2 775.3,100.5" id="Path"></path>
            <rect id="Rectangle" x="938" y="20.5" width="20.6" height="160"></rect>
            <path d="M1086.6,125.8 C1086.6,159.1 1063.1,184.1 1030.3,184.1 C997.4,184.1 974,159.1 974,125.8 C974,92.5 997.5,67.5 1030.3,67.5 C1063.1,67.5 1086.6,92.5 1086.6,125.8 M1066.1,125.8 C1066.1,100.7 1048.7,86.2 1030.3,86.2 C1012,86.2 994.6,100.7 994.6,125.8 C994.6,150.8 1012,165.300514 1030.3,165.300514 C1048.7,165.4 1066.1,150.9 1066.1,125.8" id="Shape"></path>
            <path d="M1179.6,180.6 L1179.6,165.4 L1178.7,165.4 C1172.7,175.5 1159,184.2 1144.1,184.2 C1115.9,184.2 1102.3,165.2 1102.3,138.2 L1102.3,71.2 L1122.9,71.2 L1122.9,134.9 C1122.9,157.7 1134.3,165.5 1149.9,165.5 C1167.8,165.5 1178.7,148.3 1178.7,131.5 L1178.7,71.2 L1199.3,71.2 L1199.3,180.7 L1179.6,180.7 L1179.6,180.6 Z" id="Path"></path>
            <path d="M1215.8,125.8 C1215.8,92.3 1240.2,67.5 1267.9,67.5 C1285.3,67.5 1299,76.2 1305.2,86.3 L1306.1,86.3 L1305.2,71.1 L1305.2,20.6 L1325.7,20.6 L1325.7,180.6 L1306.1,180.6 L1306.1,165.4 L1305.2,165.4 C1299,175.5 1285.3,184.2 1267.9,184.2 C1240.1,184.1 1215.8,159.3 1215.8,125.8 M1306.1,125.8 C1306.1,100.7 1289.5,86.2 1271.2,86.2 C1252.9,86.2 1236.3,101.2 1236.3,125.8 C1236.3,150.4 1252.8,165.3 1271.2,165.3 C1289.6,165.3 1306.1,150.9 1306.1,125.8" id="Shape"></path>
        </g>
    </g>
</svg>